<svg width="753" height="221" viewBox="0 0 753 221" fill="none" xmlns="http://www.w3.org/2000/svg">
<path d="M752.55 200.008V20.8071C752.55 9.31562 743.234 0 731.743 0L20.8071 0C9.31561 0 0 9.31562 0 20.8071V200.008C0 211.499 9.31561 220.815 20.8071 220.815L731.743 220.815C743.234 220.815 752.55 211.499 752.55 200.008Z" fill="#101B3B"/>
<path d="M88.763 109.716C93.4446 108.238 97.3563 106.178 100.509 103.536C103.661 100.893 106.033 97.7412 107.635 94.0687C109.237 90.3963 110.028 86.3493 110.028 81.9382C110.028 77.5271 109.279 73.6466 107.77 70.0574C106.262 66.4785 103.963 63.4095 100.883 60.8502C97.8037 58.3014 93.8919 56.3143 89.1687 54.8994C84.4455 53.4845 78.8588 52.7771 72.419 52.7771H41.739V145.483H57.7605V111.942H72.419C78.6299 111.942 84.071 111.203 88.7526 109.726L88.763 109.716ZM57.7709 64.5539H72.4294C76.0811 64.5539 79.2646 64.9492 81.9799 65.7399C84.6952 66.5306 86.9424 67.6854 88.7214 69.1835C90.5004 70.6816 91.8424 72.5126 92.7267 74.6557C93.611 76.7989 94.0584 79.2229 94.0584 81.9278C94.0584 84.6327 93.6006 87.1608 92.6851 89.3975C91.7696 91.6343 90.4067 93.5277 88.6069 95.0987C86.8071 96.6696 84.5496 97.8764 81.8238 98.7399C79.1085 99.6034 75.9666 100.03 72.4086 100.03H57.7501V64.5539H57.7709Z" fill="#F8F6F7"/>
<path d="M182.353 132.863H141.394V52.7771H125.373V145.473H182.353V132.863Z" fill="#F8F6F7"/>
<path d="M373.435 135.881C376.91 139.251 381.123 141.894 386.085 143.808C391.048 145.722 396.635 146.679 402.846 146.679C409.056 146.679 414.643 145.722 419.606 143.808C424.568 141.894 428.782 139.251 432.256 135.881C435.731 132.51 438.394 128.504 440.246 123.864C442.098 119.224 443.024 114.179 443.024 108.717V52.7771H427.044V108.717C427.044 112.41 426.493 115.77 425.4 118.798C424.308 121.825 422.716 124.416 420.636 126.569C418.555 128.723 416.016 130.398 413.031 131.594C410.034 132.801 406.643 133.394 402.846 133.394C399.048 133.394 395.657 132.791 392.661 131.594C389.664 130.387 387.136 128.702 385.087 126.538C383.037 124.374 381.456 121.773 380.353 118.746C379.25 115.718 378.709 112.358 378.709 108.665V52.7875H362.667V108.727C362.667 114.179 363.593 119.235 365.445 123.875C367.297 128.515 369.96 132.52 373.435 135.891V135.881Z" fill="#F8F6F7"/>
<path d="M486.48 145.577H502.459V65.3446H533.243V52.7771H455.633V65.3446H486.48V145.577Z" fill="#F8F6F7"/>
<path d="M708.949 107.167C707.627 104.503 705.88 102.246 703.705 100.404C701.531 98.5526 699.055 97.0337 696.267 95.8269C693.479 94.6201 690.638 93.5485 687.736 92.6018C684.833 91.655 681.993 90.7603 679.205 89.9281C676.417 89.0854 673.941 88.1178 671.767 86.9943C669.592 85.8811 667.844 84.539 666.523 82.9681C665.191 81.3972 664.536 79.4309 664.536 77.0693C664.536 75.2175 664.89 73.5113 665.597 71.9508C666.305 70.3798 667.366 69.017 668.781 67.8622C670.196 66.7074 671.943 65.8023 674.024 65.1573C676.105 64.5122 678.518 64.1897 681.255 64.1897C684.22 64.1897 686.779 64.5434 688.932 65.2509C691.075 65.9583 692.938 66.7386 694.519 67.5709C696.1 68.4136 697.422 69.173 698.493 69.8596C699.565 70.5463 700.543 70.8896 701.406 70.8896C702.228 70.8896 702.915 70.7127 703.466 70.3382C704.017 69.9741 704.538 69.4019 705.047 68.632L708.949 61.412C705.526 58.3221 701.437 55.9397 696.714 54.2544C691.981 52.5794 686.779 51.7367 681.119 51.7367C676.084 51.7367 671.61 52.4649 667.678 53.9318C663.745 55.3883 660.447 57.3338 657.774 59.7682C655.1 62.1922 653.061 64.9804 651.667 68.1119C650.273 71.2537 649.576 74.4892 649.576 77.8392C649.576 82.0526 650.242 85.5586 651.563 88.3779C652.895 91.1973 654.642 93.5589 656.806 95.4627C658.981 97.377 661.457 98.9271 664.245 100.103C667.033 101.289 669.873 102.319 672.744 103.193C675.626 104.077 678.456 104.899 681.244 105.679C684.032 106.449 686.508 107.396 688.683 108.519C690.847 109.643 692.605 111.026 693.926 112.681C695.247 114.335 695.913 116.478 695.913 119.089C695.913 123.771 694.321 127.443 691.148 130.106C687.975 132.77 683.481 134.101 677.676 134.101C674.107 134.101 671.049 133.644 668.489 132.718C665.93 131.792 663.745 130.783 661.946 129.69C660.135 128.598 658.596 127.589 657.316 126.663C656.036 125.737 654.871 125.279 653.82 125.279C653.04 125.279 652.333 125.456 651.698 125.799C651.063 126.143 650.533 126.611 650.117 127.214L645.456 134.434C647.329 136.286 649.461 137.961 651.833 139.459C654.205 140.968 656.754 142.237 659.48 143.298C662.195 144.349 665.056 145.171 668.052 145.743C671.049 146.326 674.118 146.607 677.27 146.607C682.617 146.607 687.382 145.837 691.564 144.287C695.747 142.736 699.263 140.624 702.124 137.94C704.985 135.256 707.159 132.104 708.678 128.494C710.187 124.884 710.936 121.014 710.936 116.894C710.936 113.076 710.27 109.83 708.949 107.167Z" fill="#F8F6F7"/>
<path d="M318.806 164.698C319.295 164.23 319.794 163.762 320.262 163.273C326.328 157.01 331.03 149.551 334.37 140.885C337.709 132.218 339.374 122.751 339.374 112.483C339.374 102.215 337.699 92.7475 334.37 84.0813C331.03 75.4152 326.328 67.9454 320.262 61.6513C314.197 55.3572 306.915 50.4467 298.405 46.9199C289.894 43.3931 280.448 41.6245 270.045 41.6245C259.641 41.6245 250.288 43.3931 241.788 46.9199C233.289 50.4467 225.986 55.3572 219.879 61.6513C213.782 67.9454 209.059 75.4152 205.73 84.0813C202.39 92.7475 200.726 102.215 200.726 112.483C200.726 122.751 202.401 132.218 205.73 140.885C209.069 149.551 213.782 157.01 219.879 163.273C220.357 163.762 220.857 164.23 221.346 164.698H41.6245V179.201H248.853V164.698L247.157 164.459C241.612 161.921 236.795 158.477 232.758 154.087C228.295 149.228 224.852 143.298 222.448 136.286C220.045 129.274 218.838 121.336 218.838 112.483C218.838 103.63 220.045 95.7957 222.448 88.7837C224.852 81.7717 228.295 75.8209 232.758 70.9313C237.221 66.0416 242.6 62.2859 248.905 59.6642C255.209 57.0425 262.263 55.7317 270.055 55.7317C277.847 55.7317 285.005 57.0425 291.309 59.6642C297.614 62.2859 302.982 66.0416 307.414 70.9313C311.846 75.8209 315.237 81.7717 317.62 88.7837C319.992 95.7957 321.178 103.702 321.178 112.483C321.178 121.264 319.992 129.274 317.62 136.286C315.237 143.298 311.846 149.239 307.414 154.087C303.305 158.591 298.363 162.108 292.631 164.667L292.402 164.698V179.201H708.97V164.698H318.827H318.806Z" fill="#F8F6F7"/>
<path d="M550.784 133.176C555.122 137.368 560.324 140.645 566.379 143.007C572.434 145.369 579.144 146.555 586.499 146.555C593.854 146.555 600.638 145.369 606.692 143.007C612.747 140.645 617.939 137.368 622.256 133.176C626.574 128.983 629.924 123.989 632.296 118.195C634.668 112.389 635.864 106.054 635.864 99.1873C635.864 92.3209 634.678 85.9748 632.296 80.18C629.924 74.3853 626.574 69.3812 622.256 65.1677C617.939 60.9543 612.747 57.6668 606.692 55.3052C600.638 52.9436 593.906 51.7576 586.499 51.7576C579.092 51.7576 572.434 52.9436 566.379 55.3052C560.324 57.6668 555.122 60.9543 550.784 65.1677C546.446 69.3812 543.085 74.3853 540.703 80.18C538.331 85.9852 537.134 92.3209 537.134 99.1873C537.134 106.054 538.32 112.4 540.703 118.195C543.075 124 546.435 128.993 550.784 133.176ZM555.788 84.7992C557.338 80.5441 559.564 76.9341 562.436 73.9691C565.318 71.0041 568.782 68.7257 572.85 67.134C576.918 65.5422 581.464 64.7516 586.489 64.7516C591.514 64.7516 596.133 65.5422 600.201 67.134C604.268 68.7257 607.733 71.0041 610.583 73.9691C613.444 76.9341 615.629 80.5441 617.169 84.7992C618.698 89.0542 619.468 93.8399 619.468 99.1665C619.468 104.493 618.698 109.352 617.169 113.607C615.639 117.862 613.444 121.461 610.583 124.405C607.733 127.35 604.268 129.607 600.201 131.168C596.133 132.739 591.566 133.519 586.489 133.519C581.412 133.519 576.918 132.739 572.85 131.168C568.782 129.597 565.307 127.339 562.436 124.405C559.554 121.461 557.338 117.862 555.788 113.607C554.238 109.352 553.458 104.545 553.458 99.1665C553.458 93.7878 554.238 89.0438 555.788 84.7992Z" fill="#F8F6F7"/>
</svg>
