<svg width="644" height="133" viewBox="0 0 644 133" fill="none" xmlns="http://www.w3.org/2000/svg">
<path d="M45.3101 65.45C49.8101 64.03 53.5701 62.05 56.6001 59.51C59.6301 56.97 61.9101 53.94 63.4501 50.41C64.9901 46.88 65.7501 42.99 65.7501 38.75C65.7501 34.51 65.0301 30.78 63.5801 27.33C62.1301 23.89 59.9201 20.94 56.9601 18.48C54.0001 16.03 50.2401 14.12 45.7001 12.76C41.1601 11.4 35.7901 10.72 29.6001 10.72H0.110107V99.83H15.5101V67.59H29.6001C35.5701 67.59 40.8001 66.88 45.3001 65.46L45.3101 65.45ZM15.5201 22.04H29.6101C33.1201 22.04 36.1801 22.42 38.7901 23.18C41.4001 23.94 43.5601 25.05 45.2701 26.49C46.9801 27.93 48.2701 29.69 49.1201 31.75C49.9701 33.81 50.4001 36.14 50.4001 38.74C50.4001 41.34 49.9601 43.77 49.0801 45.92C48.2001 48.07 46.8901 49.89 45.1601 51.4C43.4301 52.91 41.2601 54.07 38.6401 54.9C36.0301 55.73 33.0101 56.14 29.5901 56.14H15.5001V22.04H15.5201Z" fill="#101B3B"/>
<path d="M135.27 87.6899H95.9V10.71H80.5V99.8199H135.27V87.6899Z" fill="#101B3B"/>
<path d="M318.94 90.59C322.28 93.83 326.33 96.37 331.1 98.21C335.87 100.05 341.24 100.97 347.21 100.97C353.18 100.97 358.55 100.05 363.32 98.21C368.09 96.37 372.14 93.83 375.48 90.59C378.82 87.35 381.38 83.4999 383.16 79.0399C384.94 74.5799 385.83 69.7299 385.83 64.4799V10.71H370.47V64.4799C370.47 68.0299 369.94 71.26 368.89 74.17C367.84 77.08 366.31 79.57 364.31 81.64C362.31 83.71 359.87 85.32 357 86.47C354.12 87.63 350.86 88.2 347.21 88.2C343.56 88.2 340.3 87.62 337.42 86.47C334.54 85.31 332.11 83.6899 330.14 81.6099C328.17 79.5299 326.65 77.0299 325.59 74.1199C324.53 71.2099 324.01 67.9799 324.01 64.4299V10.7199H308.59V64.49C308.59 69.73 309.48 74.5899 311.26 79.0499C313.04 83.5099 315.6 87.36 318.94 90.6V90.59Z" fill="#101B3B"/>
<path d="M427.6 99.9199H442.96V22.7899H472.55V10.71H397.95V22.7899H427.6V99.9199Z" fill="#101B3B"/>
<path d="M641.44 62.99C640.17 60.43 638.49 58.26 636.4 56.49C634.31 54.71 631.93 53.2499 629.25 52.0899C626.57 50.9299 623.84 49.9 621.05 48.99C618.26 48.08 615.53 47.22 612.85 46.42C610.17 45.61 607.79 44.6799 605.7 43.5999C603.61 42.5299 601.93 41.24 600.66 39.7299C599.38 38.2199 598.75 36.3299 598.75 34.0599C598.75 32.2799 599.09 30.64 599.77 29.14C600.45 27.63 601.47 26.32 602.83 25.21C604.19 24.1 605.87 23.23 607.87 22.61C609.87 21.99 612.19 21.6799 614.82 21.6799C617.67 21.6799 620.13 22.02 622.2 22.7C624.26 23.38 626.05 24.1299 627.57 24.9299C629.09 25.7399 630.36 26.4699 631.39 27.1299C632.42 27.7899 633.36 28.1199 634.19 28.1199C634.98 28.1199 635.64 27.9499 636.17 27.5899C636.7 27.2399 637.2 26.69 637.69 25.95L641.44 19.0099C638.15 16.0399 634.22 13.7499 629.68 12.1299C625.13 10.5199 620.13 9.70996 614.69 9.70996C609.85 9.70996 605.55 10.4099 601.77 11.8199C597.99 13.2199 594.82 15.0899 592.25 17.4299C589.68 19.7599 587.72 22.44 586.38 25.45C585.04 28.47 584.37 31.58 584.37 34.8C584.37 38.85 585.01 42.2199 586.28 44.9299C587.56 47.6399 589.24 49.91 591.32 51.74C593.41 53.58 595.79 55.07 598.47 56.2C601.15 57.34 603.88 58.33 606.64 59.17C609.41 60.02 612.13 60.8099 614.81 61.5599C617.49 62.2999 619.87 63.2099 621.96 64.2899C624.04 65.3699 625.73 66.6999 627 68.2899C628.27 69.8799 628.91 71.94 628.91 74.45C628.91 78.95 627.38 82.4799 624.33 85.0399C621.28 87.5999 616.96 88.8799 611.38 88.8799C607.95 88.8799 605.01 88.4399 602.55 87.5499C600.09 86.6599 597.99 85.69 596.26 84.64C594.52 83.59 593.04 82.6199 591.81 81.7299C590.58 80.8399 589.46 80.4 588.45 80.4C587.7 80.4 587.02 80.57 586.41 80.9C585.8 81.23 585.29 81.6799 584.89 82.2599L580.41 89.2C582.21 90.9799 584.26 92.59 586.54 94.03C588.82 95.48 591.27 96.7 593.89 97.72C596.5 98.73 599.25 99.5199 602.13 100.07C605.01 100.63 607.96 100.9 610.99 100.9C616.13 100.9 620.71 100.16 624.73 98.6699C628.75 97.1799 632.13 95.1499 634.88 92.5699C637.63 89.9899 639.72 86.9599 641.18 83.4899C642.63 80.0199 643.35 76.2999 643.35 72.3399C643.35 68.6699 642.71 65.55 641.44 62.99Z" fill="#101B3B"/>
<path d="M266.43 118.3C266.9 117.85 267.38 117.4 267.83 116.93C273.66 110.91 278.18 103.74 281.39 95.41C284.6 87.08 286.2 77.98 286.2 68.11C286.2 58.24 284.59 49.14 281.39 40.81C278.18 32.48 273.66 25.3 267.83 19.25C262 13.2 255 8.48 246.82 5.09C238.64 1.7 229.56 0 219.56 0C209.56 0 200.57 1.7 192.4 5.09C184.23 8.48 177.21 13.2 171.34 19.25C165.48 25.3 160.94 32.48 157.74 40.81C154.53 49.14 152.93 58.24 152.93 68.11C152.93 77.98 154.54 87.08 157.74 95.41C160.95 103.74 165.48 110.91 171.34 116.93C171.8 117.4 172.28 117.85 172.75 118.3H0V132.24H199.19V118.3L197.56 118.07C192.23 115.63 187.6 112.32 183.72 108.1C179.43 103.43 176.12 97.73 173.81 90.99C171.5 84.25 170.34 76.62 170.34 68.11C170.34 59.6 171.5 52.07 173.81 45.33C176.12 38.59 179.43 32.87 183.72 28.17C188.01 23.47 193.18 19.86 199.24 17.34C205.3 14.82 212.08 13.56 219.57 13.56C227.06 13.56 233.94 14.82 240 17.34C246.06 19.86 251.22 23.47 255.48 28.17C259.74 32.87 263 38.59 265.29 45.33C267.57 52.07 268.71 59.67 268.71 68.11C268.71 76.55 267.57 84.25 265.29 90.99C263 97.73 259.74 103.44 255.48 108.1C251.53 112.43 246.78 115.81 241.27 118.27L241.05 118.3V132.24H641.46V118.3H266.45H266.43Z" fill="#101B3B"/>
<path d="M489.41 87.99C493.58 92.02 498.58 95.17 504.4 97.44C510.22 99.71 516.67 100.85 523.74 100.85C530.81 100.85 537.33 99.71 543.15 97.44C548.97 95.17 553.96 92.02 558.11 87.99C562.26 83.96 565.48 79.16 567.76 73.59C570.04 68.01 571.19 61.92 571.19 55.32C571.19 48.72 570.05 42.62 567.76 37.05C565.48 31.48 562.26 26.67 558.11 22.62C553.96 18.57 548.97 15.41 543.15 13.14C537.33 10.87 530.86 9.72998 523.74 9.72998C516.62 9.72998 510.22 10.87 504.4 13.14C498.58 15.41 493.58 18.57 489.41 22.62C485.24 26.67 482.01 31.48 479.72 37.05C477.44 42.63 476.29 48.72 476.29 55.32C476.29 61.92 477.43 68.02 479.72 73.59C482 79.17 485.23 83.97 489.41 87.99ZM494.22 41.5C495.71 37.41 497.85 33.94 500.61 31.09C503.38 28.24 506.71 26.05 510.62 24.52C514.53 22.99 518.9 22.23 523.73 22.23C528.56 22.23 533 22.99 536.91 24.52C540.82 26.05 544.15 28.24 546.89 31.09C549.64 33.94 551.74 37.41 553.22 41.5C554.69 45.59 555.43 50.19 555.43 55.31C555.43 60.43 554.69 65.1 553.22 69.19C551.75 73.28 549.64 76.74 546.89 79.57C544.15 82.4 540.82 84.57 536.91 86.07C533 87.58 528.61 88.33 523.73 88.33C518.85 88.33 514.53 87.58 510.62 86.07C506.71 84.56 503.37 82.39 500.61 79.57C497.84 76.74 495.71 73.28 494.22 69.19C492.73 65.1 491.98 60.48 491.98 55.31C491.98 50.14 492.73 45.58 494.22 41.5Z" fill="#101B3B"/>
</svg>
