<svg width="754" height="577" viewBox="0 0 754 577" fill="none" xmlns="http://www.w3.org/2000/svg">
<g clip-path="url(#clip0_167_219)">
<path d="M351.67 220.08C340.46 220.08 331.07 214.87 325.9 205.79C317.15 190.41 326.07 177.28 333.24 166.72C338.4 159.12 344.25 150.51 347.34 138.57C349.24 131.22 349.08 117.61 347.52 119.82C344.58 123.98 339.1 131.73 328.74 131.73C326.27 131.73 323.8 131.25 321.39 130.31C314.16 127.48 310.28 119.61 312.42 112.16C316.2 99.0201 326.24 64.12 362.21 64.03C362.21 64.03 457.94 63.8 457.95 63.8C463.72 63.8 469.14 67.1101 471.68 72.6901C472.64 74.7901 473 77.1201 472.98 79.43L472.78 98.17C472.69 106.32 466.13 112.91 457.98 113.04L441.64 113.29C441.28 113.29 440.99 113.57 440.97 113.93L438.46 152.18C438.18 156.51 440.4 161.16 442.11 158.99C445.26 154.99 450.23 152.6 455.4 152.6C461.36 152.6 466.84 155.67 470.05 160.82C476.66 171.41 471.04 186.04 465.4 197.61C458.49 211.77 444.57 220.23 428.15 220.23C428.15 220.23 353.83 220.1 351.68 220.1L351.67 220.08Z" fill="#101B3B"/>
<path d="M407.93 101.35C398.69 99.59 390.39 100.52 381.08 100.85C379.06 126.59 377.35 168.55 368.79 190.91C366.65 196.5 362.41 200.45 357.75 201.24C351.44 202.31 345.15 200.96 341.9 195.25C334.59 182.41 356 171.58 363.57 142.31C367.09 128.7 368.66 115.39 369.56 101.28C337.47 95.32 340.01 121.45 330.47 117.72C335.47 100.33 343.35 82.57 363.9 82.52L454.34 82.3L454.14 100.42L425.01 100.86L421.74 150.67C421.22 158.52 421.3 166.5 423.57 174.02C425.47 180.32 431.9 182.34 437.74 181.87C448.98 180.96 450.11 166.72 450.33 167.63C449.72 165.12 460.94 163.02 448.61 188.31C444.18 197.39 435.65 201.84 425.74 201.7C411.43 201.51 401.81 191 402.08 176.4C402.53 151.65 405.95 127.87 407.95 101.36L407.93 101.35Z" fill="#F8F6F7"/>
<path d="M366.43 262.98C335.48 257.1 308.2 240.19 289.12 214.86C268.78 187.87 260.17 154.57 264.87 121.1C269.57 87.63 287.03 58 314.02 37.65C339.75 18.26 371.21 9.53996 403.09 12.84C404.65 13 406.22 13.18 407.78 13.4C441.25 18.1 470.88 35.56 491.23 62.55L499.16 56.58C476.48 26.49 443.75 8.42996 409.17 3.56996C407.61 3.34996 406.05 3.16996 404.48 2.99996C371.3 -0.500045 336.78 8.06996 308.04 29.72C247.85 75.08 235.83 160.64 281.18 220.83C302.51 249.14 332.75 266.78 365.05 272.82L366.42 262.98H366.43Z" fill="#101B3B"/>
<path d="M292.14 236.84C287.58 232.28 283.32 227.38 279.39 222.17C257.1 192.59 247.66 156.09 252.82 119.4C257.97 82.71 277.11 50.23 306.69 27.93C334.85 6.72001 369.65 -2.92999 404.7 0.780014C406.51 0.970014 408.03 1.15001 409.47 1.36001C446.16 6.52001 478.64 25.65 500.94 55.24L502.29 57.03L490.79 65.7L489.44 63.91C469.46 37.4 440.35 20.25 407.47 15.63C406.09 15.44 404.58 15.25 402.86 15.08C371.59 11.84 340.52 20.5 315.37 39.45C288.86 59.43 271.71 88.54 267.09 121.42C262.47 154.3 270.93 187.01 290.91 213.52C309.54 238.24 336.51 255.03 366.85 260.79L368.95 261.19L366.96 275.46L364.65 275.03C336.97 269.85 311.81 256.51 292.15 236.86L292.14 236.84ZM484.89 43.58C464.43 23.12 438.01 9.89001 408.84 5.79001C407.45 5.60001 405.99 5.42001 404.23 5.23001C370.31 1.65001 336.63 10.98 309.39 31.51C280.76 53.09 262.24 84.52 257.25 120.02C252.26 155.52 261.39 190.84 282.97 219.47C302.7 245.65 331.1 263.58 363.16 270.15L363.91 264.75C333.32 258.42 306.19 241.23 287.32 216.19C266.62 188.72 257.86 154.83 262.64 120.77C267.43 86.71 285.19 56.55 312.66 35.85C338.72 16.21 370.91 7.25001 403.31 10.6C405.09 10.78 406.65 10.97 408.09 11.17C441.41 15.85 471 32.95 491.65 59.42L496 56.14C492.53 51.69 488.82 47.5 484.9 43.57L484.89 43.58Z" fill="#101B3B"/>
<path d="M458.17 49.4999C470.729 49.4999 480.91 39.3189 480.91 26.7599C480.91 14.2009 470.729 4.0199 458.17 4.0199C445.611 4.0199 435.43 14.2009 435.43 26.7599C435.43 39.3189 445.611 49.4999 458.17 49.4999Z" fill="#E3AF64"/>
<path d="M475.7 9.19995L469.36 15.5399C472.92 19.0999 474.56 23.9899 473.86 28.9599C472.64 37.6099 464.61 43.66 455.96 42.45C452.52 41.97 449.42 40.4199 446.97 37.9799C443.41 34.4199 441.77 29.5299 442.47 24.5499C443.69 15.8999 451.72 9.84995 460.37 11.0599C463.81 11.5399 466.91 13.0899 469.36 15.5299L475.7 9.18995M475.7 9.19995C472.02 5.51995 467.17 2.96995 461.62 2.18995C448.05 0.279949 435.5 9.73995 433.6 23.3099C432.47 31.3399 435.32 39 440.64 44.32C444.32 48 449.17 50.55 454.72 51.33C468.29 53.24 480.84 43.7799 482.74 30.2099C483.87 22.1799 481.02 14.5199 475.7 9.19995Z" fill="#101B3B"/>
</g>
<path d="M53.0635 498.65C58.3335 496.987 62.7369 494.668 66.2854 491.693C69.8339 488.719 72.5041 485.17 74.3076 481.036C76.1111 476.902 77.0012 472.346 77.0012 467.381C77.0012 462.415 76.158 458.047 74.4599 454.007C72.7617 449.978 70.1736 446.523 66.707 443.642C63.2405 440.773 58.8371 438.536 53.5202 436.944C48.2034 435.351 41.9144 434.554 34.6652 434.554H0.128895V538.913H18.1641V501.156H34.6652C41.6568 501.156 47.7818 500.325 53.0518 498.662L53.0635 498.65ZM18.1758 447.812H34.6769C38.7876 447.812 42.3712 448.257 45.4278 449.147C48.4844 450.037 51.014 451.337 53.0167 453.023C55.0193 454.709 56.53 456.771 57.5255 459.183C58.5209 461.596 59.0245 464.324 59.0245 467.369C59.0245 470.414 58.5092 473.26 57.4786 475.778C56.448 478.296 54.9139 480.427 52.8878 482.196C50.8618 483.964 48.3205 485.322 45.2521 486.295C42.1955 487.267 38.6587 487.747 34.6535 487.747H18.1524V447.812H18.1758Z" fill="#101B3B"/>
<path d="M158.417 524.707H112.31V434.554H94.2752V538.901H158.417V524.707Z" fill="#101B3B"/>
<path d="M373.517 528.103C377.428 531.898 382.171 534.873 387.758 537.027C393.344 539.182 399.633 540.26 406.624 540.26C413.616 540.26 419.905 539.182 425.491 537.027C431.077 534.873 435.82 531.898 439.732 528.103C443.643 524.309 446.642 519.8 448.726 514.577C450.811 509.354 451.853 503.674 451.853 497.526V434.554H433.865V497.526C433.865 501.683 433.244 505.466 432.014 508.874C430.785 512.282 428.993 515.198 426.651 517.622C424.308 520.046 421.451 521.932 418.09 523.278C414.717 524.637 410.899 525.304 406.624 525.304C402.35 525.304 398.532 524.625 395.159 523.278C391.786 521.92 388.94 520.023 386.633 517.587C384.326 515.151 382.546 512.223 381.305 508.815C380.063 505.407 379.454 501.624 379.454 497.467V434.566H361.396V497.537C361.396 503.674 362.438 509.366 364.523 514.589C366.607 519.812 369.605 524.321 373.517 528.115V528.103Z" fill="#101B3B"/>
<path d="M500.771 539.018H518.759V448.702H553.412V434.554H466.047V448.702H500.771V539.018Z" fill="#101B3B"/>
<path d="M751.203 495.781C749.716 492.782 747.748 490.241 745.3 488.168C742.853 486.084 740.066 484.374 736.927 483.015C733.788 481.657 730.591 480.451 727.324 479.385C724.056 478.319 720.859 477.312 717.721 476.375C714.582 475.426 711.795 474.337 709.347 473.073C706.899 471.819 704.932 470.309 703.445 468.54C701.946 466.772 701.208 464.559 701.208 461.9C701.208 459.815 701.606 457.895 702.402 456.138C703.199 454.37 704.393 452.836 705.986 451.536C707.579 450.236 709.546 449.217 711.888 448.491C714.231 447.765 716.948 447.402 720.028 447.402C723.365 447.402 726.246 447.8 728.671 448.596C731.083 449.393 733.179 450.271 734.959 451.208C736.74 452.156 738.227 453.011 739.433 453.784C740.639 454.557 741.74 454.944 742.712 454.944C743.637 454.944 744.41 454.745 745.031 454.323C745.652 453.913 746.237 453.269 746.811 452.402L751.203 444.275C747.35 440.796 742.747 438.115 737.431 436.217C732.102 434.332 726.246 433.383 719.875 433.383C714.207 433.383 709.171 434.203 704.745 435.854C700.318 437.494 696.605 439.684 693.596 442.424C690.586 445.153 688.29 448.292 686.721 451.817C685.152 455.354 684.367 458.996 684.367 462.767C684.367 467.51 685.117 471.456 686.604 474.63C688.103 477.804 690.07 480.462 692.506 482.605C694.954 484.76 697.741 486.505 700.88 487.829C704.018 489.164 707.216 490.323 710.448 491.307C713.692 492.302 716.877 493.228 720.016 494.106C723.155 494.972 725.942 496.038 728.39 497.303C730.825 498.568 732.805 500.125 734.292 501.987C735.779 503.85 736.529 506.262 736.529 509.202C736.529 514.472 734.737 518.606 731.165 521.604C727.593 524.602 722.534 526.101 715.999 526.101C711.982 526.101 708.539 525.586 705.658 524.543C702.777 523.501 700.318 522.365 698.292 521.135C696.254 519.906 694.521 518.77 693.08 517.727C691.64 516.685 690.328 516.17 689.145 516.17C688.267 516.17 687.471 516.369 686.756 516.755C686.042 517.142 685.445 517.669 684.976 518.348L679.729 526.476C681.837 528.56 684.238 530.446 686.908 532.132C689.579 533.83 692.448 535.259 695.516 536.454C698.573 537.636 701.793 538.562 705.166 539.206C708.539 539.861 711.994 540.178 715.542 540.178C721.562 540.178 726.926 539.311 731.633 537.566C736.341 535.821 740.3 533.444 743.52 530.422C746.741 527.401 749.189 523.852 750.898 519.788C752.597 515.725 753.44 511.368 753.44 506.731C753.44 502.432 752.69 498.779 751.203 495.781Z" fill="#101B3B"/>
<path d="M312.021 560.543C312.572 560.016 313.134 559.489 313.661 558.939C320.489 551.889 325.782 543.492 329.541 533.737C333.301 523.981 335.174 513.324 335.174 501.765C335.174 490.206 333.289 479.549 329.541 469.793C325.782 460.038 320.489 451.629 313.661 444.544C306.833 437.459 298.635 431.931 289.056 427.961C279.476 423.991 268.842 422 257.131 422C245.42 422 234.891 423.991 225.323 427.961C215.755 431.931 207.534 437.459 200.66 444.544C193.797 451.629 188.48 460.038 184.732 469.793C180.973 479.549 179.099 490.206 179.099 501.765C179.099 513.324 180.985 523.981 184.732 533.737C188.492 543.492 193.797 551.889 200.66 558.939C201.198 559.489 201.76 560.016 202.311 560.543H0V576.869H233.275V560.543L231.366 560.274C225.124 557.417 219.702 553.54 215.158 548.598C210.134 543.129 206.258 536.454 203.552 528.56C200.847 520.667 199.489 511.731 199.489 501.765C199.489 491.799 200.847 482.98 203.552 475.087C206.258 467.194 210.134 460.495 215.158 454.99C220.182 449.486 226.237 445.258 233.334 442.307C240.431 439.356 248.371 437.88 257.143 437.88C265.914 437.88 273.972 439.356 281.069 442.307C288.166 445.258 294.209 449.486 299.198 454.99C304.187 460.495 308.004 467.194 310.686 475.087C313.356 482.98 314.692 491.881 314.692 501.765C314.692 511.649 313.356 520.667 310.686 528.56C308.004 536.454 304.187 543.141 299.198 548.598C294.572 553.669 289.009 557.627 282.556 560.508L282.298 560.543V576.869H751.226V560.543H312.045H312.021Z" fill="#101B3B"/>
<path d="M572.786 524.921C577.663 529.653 583.511 533.352 590.319 536.017C597.126 538.683 604.67 540.022 612.94 540.022C621.209 540.022 628.835 538.683 635.643 536.017C642.45 533.352 648.287 529.653 653.141 524.921C657.995 520.188 661.761 514.552 664.428 508.011C667.095 501.459 668.44 494.307 668.44 486.557C668.44 478.807 667.106 471.644 664.428 465.103C661.761 458.562 657.995 452.914 653.141 448.158C648.287 443.402 642.45 439.692 635.643 437.026C628.835 434.36 621.268 433.022 612.94 433.022C604.612 433.022 597.126 434.36 590.319 437.026C583.511 439.692 577.663 443.402 572.786 448.158C567.908 452.914 564.13 458.562 561.452 465.103C558.785 471.655 557.44 478.807 557.44 486.557C557.44 494.307 558.773 501.47 561.452 508.011C564.118 514.563 567.896 520.2 572.786 524.921ZM578.412 470.317C580.154 465.514 582.657 461.439 585.886 458.093C589.126 454.746 593.021 452.174 597.594 450.378C602.167 448.581 607.279 447.688 612.928 447.688C618.577 447.688 623.771 448.581 628.344 450.378C632.917 452.174 636.812 454.746 640.017 458.093C643.234 461.439 645.69 465.514 647.421 470.317C649.14 475.12 650.006 480.521 650.006 486.533C650.006 492.546 649.14 498.03 647.421 502.832C645.702 507.635 643.234 511.698 640.017 515.021C636.812 518.345 632.917 520.893 628.344 522.654C623.771 524.427 618.636 525.308 612.928 525.308C607.22 525.308 602.167 524.427 597.594 522.654C593.021 520.881 589.114 518.333 585.886 515.021C582.646 511.698 580.154 507.635 578.412 502.832C576.669 498.03 575.792 492.604 575.792 486.533C575.792 480.462 576.669 475.108 578.412 470.317Z" fill="#101B3B"/>
<defs>
<clipPath id="clip0_167_219">
<rect width="250.85" height="275.45" fill="white" transform="translate(251.44)"/>
</clipPath>
</defs>
</svg>
