<svg width="251" height="276" viewBox="0 0 251 276" fill="none" xmlns="http://www.w3.org/2000/svg">
<g clip-path="url(#clip0_167_104)">
<path d="M100.23 220.08C89.0201 220.08 79.6301 214.87 74.4601 205.79C65.7101 190.41 74.6301 177.28 81.8001 166.72C86.9601 159.12 92.8101 150.51 95.9001 138.57C97.8001 131.22 97.6401 117.61 96.0801 119.82C93.1401 123.98 87.6601 131.73 77.3001 131.73C74.8301 131.73 72.3601 131.25 69.9501 130.31C62.7201 127.48 58.8401 119.61 60.9801 112.16C64.7601 99.0201 74.8001 64.12 110.77 64.03C110.77 64.03 206.5 63.8 206.51 63.8C212.28 63.8 217.7 67.1101 220.24 72.6901C221.2 74.7901 221.56 77.1201 221.54 79.43L221.34 98.17C221.25 106.32 214.69 112.91 206.54 113.04L190.2 113.29C189.84 113.29 189.55 113.57 189.53 113.93L187.02 152.18C186.74 156.51 188.96 161.16 190.67 158.99C193.82 154.99 198.79 152.6 203.96 152.6C209.92 152.6 215.4 155.67 218.61 160.82C225.22 171.41 219.6 186.04 213.96 197.61C207.05 211.77 193.13 220.23 176.71 220.23C176.71 220.23 102.39 220.1 100.24 220.1L100.23 220.08Z" fill="#101B3B"/>
<path d="M156.49 101.35C147.25 99.59 138.95 100.52 129.64 100.85C127.62 126.59 125.91 168.55 117.35 190.91C115.21 196.5 110.97 200.45 106.31 201.24C100 202.31 93.71 200.96 90.46 195.25C83.15 182.41 104.56 171.58 112.13 142.31C115.65 128.7 117.22 115.39 118.12 101.28C86.03 95.32 88.57 121.45 79.03 117.72C84.03 100.33 91.91 82.57 112.46 82.52L202.9 82.3L202.7 100.42L173.57 100.86L170.3 150.67C169.78 158.52 169.86 166.5 172.13 174.02C174.03 180.32 180.46 182.34 186.3 181.87C197.54 180.96 198.67 166.72 198.89 167.63C198.28 165.12 209.5 163.02 197.17 188.31C192.74 197.39 184.21 201.84 174.3 201.7C159.99 201.51 150.37 191 150.64 176.4C151.09 151.65 154.51 127.87 156.51 101.36L156.49 101.35Z" fill="#F8F6F7"/>
<path d="M114.99 262.98C84.04 257.1 56.76 240.19 37.68 214.86C17.34 187.87 8.73002 154.57 13.43 121.1C18.13 87.63 35.59 58 62.58 37.65C88.31 18.26 119.77 9.53996 151.65 12.84C153.21 13 154.78 13.18 156.34 13.4C189.81 18.1 219.44 35.56 239.79 62.55L247.72 56.58C225.04 26.49 192.31 8.42996 157.73 3.56996C156.17 3.34996 154.61 3.16996 153.04 2.99996C119.86 -0.500045 85.34 8.06996 56.6 29.72C-3.58998 75.08 -15.61 160.64 29.74 220.83C51.07 249.14 81.31 266.78 113.61 272.82L114.98 262.98H114.99Z" fill="#101B3B"/>
<path d="M40.7 236.84C36.14 232.28 31.88 227.38 27.95 222.17C5.66001 192.59 -3.77999 156.09 1.38001 119.4C6.53001 82.71 25.67 50.23 55.25 27.93C83.41 6.72001 118.21 -2.92999 153.26 0.780014C155.07 0.970014 156.59 1.15001 158.03 1.36001C194.72 6.52001 227.2 25.65 249.5 55.24L250.85 57.03L239.35 65.7L238 63.91C218.02 37.4 188.91 20.25 156.03 15.63C154.65 15.44 153.14 15.25 151.42 15.08C120.15 11.84 89.08 20.5 63.93 39.45C37.42 59.43 20.27 88.54 15.65 121.42C11.03 154.3 19.49 187.01 39.47 213.52C58.1 238.24 85.07 255.03 115.41 260.79L117.51 261.19L115.52 275.46L113.21 275.03C85.53 269.85 60.37 256.51 40.71 236.86L40.7 236.84ZM233.45 43.58C212.99 23.12 186.57 9.89001 157.4 5.79001C156.01 5.60001 154.55 5.42001 152.79 5.23001C118.87 1.65001 85.19 10.98 57.95 31.51C29.32 53.09 10.8 84.52 5.81001 120.02C0.820009 155.52 9.95001 190.84 31.53 219.47C51.26 245.65 79.66 263.58 111.72 270.15L112.47 264.75C81.88 258.42 54.75 241.23 35.88 216.19C15.18 188.72 6.42001 154.83 11.2 120.77C15.99 86.71 33.75 56.55 61.22 35.85C87.28 16.21 119.47 7.25001 151.87 10.6C153.65 10.78 155.21 10.97 156.65 11.17C189.97 15.85 219.56 32.95 240.21 59.42L244.56 56.14C241.09 51.69 237.38 47.5 233.46 43.57L233.45 43.58Z" fill="#101B3B"/>
<path d="M206.73 49.4999C219.289 49.4999 229.47 39.3189 229.47 26.7599C229.47 14.2009 219.289 4.0199 206.73 4.0199C194.171 4.0199 183.99 14.2009 183.99 26.7599C183.99 39.3189 194.171 49.4999 206.73 49.4999Z" fill="#E3AF64"/>
<path d="M224.26 9.19995L217.92 15.5399C221.48 19.0999 223.12 23.9899 222.42 28.9599C221.2 37.6099 213.17 43.66 204.52 42.45C201.08 41.97 197.98 40.4199 195.53 37.9799C191.97 34.4199 190.33 29.5299 191.03 24.5499C192.25 15.8999 200.28 9.84995 208.93 11.0599C212.37 11.5399 215.47 13.0899 217.92 15.5299L224.26 9.18995M224.26 9.19995C220.58 5.51995 215.73 2.96995 210.18 2.18995C196.61 0.279949 184.06 9.73995 182.16 23.3099C181.03 31.3399 183.88 39 189.2 44.32C192.88 48 197.73 50.55 203.28 51.33C216.85 53.24 229.4 43.7799 231.3 30.2099C232.43 22.1799 229.58 14.5199 224.26 9.19995Z" fill="#101B3B"/>
</g>
<defs>
<clipPath id="clip0_167_104">
<rect width="250.85" height="275.45" fill="white"/>
</clipPath>
</defs>
</svg>
